<?xml version="1.0" encoding="UTF-8" standalone="no"?>
<!-- Created with Inkscape (http://www.inkscape.org/) -->

<svg
   xmlns:dc="http://purl.org/dc/elements/1.1/"
   xmlns:cc="http://creativecommons.org/ns#"
   xmlns:rdf="http://www.w3.org/1999/02/22-rdf-syntax-ns#"
   xmlns:svg="http://www.w3.org/2000/svg"
   xmlns="http://www.w3.org/2000/svg"
   xmlns:sodipodi="http://sodipodi.sourceforge.net/DTD/sodipodi-0.dtd"
   xmlns:inkscape="http://www.inkscape.org/namespaces/inkscape"
   width="744.09448819"
   height="1052.3622047"
   id="svg2"
   version="1.1"
   inkscape:version="0.48.4 r9939"
   sodipodi:docname="ficg_star.svg">
  <defs
     id="defs4" />
  <sodipodi:namedview
     id="base"
     pagecolor="#ffffff"
     bordercolor="#666666"
     borderopacity="1.0"
     inkscape:pageopacity="0.0"
     inkscape:pageshadow="2"
     inkscape:zoom="0.49497475"
     inkscape:cx="-89.254559"
     inkscape:cy="422.64214"
     inkscape:document-units="px"
     inkscape:current-layer="layer1"
     showgrid="false"
     inkscape:window-width="1600"
     inkscape:window-height="873"
     inkscape:window-x="0"
     inkscape:window-y="0"
     inkscape:window-maximized="1" />
  <metadata
     id="metadata7">
    <rdf:RDF>
      <cc:Work
         rdf:about="">
        <dc:format>image/svg+xml</dc:format>
        <dc:type
           rdf:resource="http://purl.org/dc/dcmitype/StillImage" />
        <dc:title></dc:title>
      </cc:Work>
    </rdf:RDF>
  </metadata>
  <g
     inkscape:label="Layer 1"
     inkscape:groupmode="layer"
     id="layer1">
    <path
       style="fill:#333333;fill-opacity:1;stroke:none"
       d="m 403.27254,1044.6739 c -1.30545,-6.621 -3.23141,-15.6498 -4.27992,-20.0638 -1.04852,-4.4141 -10.09182,-50.00916 -20.09621,-101.32245 -55.45593,-284.4372 -52.33107,-269.94907 -58.08344,-269.30103 -2.723,0.30677 -21.67708,7.23709 -42.12017,15.40073 -20.44307,8.16362 -54.77527,21.71685 -76.29375,30.11827 -21.51848,8.40141 -54.97395,21.56003 -74.34548,29.24135 -19.37152,7.6813 -35.952786,13.96602 -36.847273,13.96602 -0.894467,0 -0.242632,-2.11176 1.44853,-4.69281 2.496405,-3.80999 138.308173,-174.53932 145.957043,-183.48296 8.45574,-9.88711 25.98511,-34.5785 25.98511,-36.6019 0,-1.3563 -17.42308,-20.18026 -38.71798,-41.83103 C 204.58411,454.45353 170.00376,419.13325 149.03379,397.61478 128.06381,376.0963 94.248859,341.50441 73.889429,320.74391 53.529998,299.9834 36.571331,282.15165 36.203499,281.1178 c -1.148494,-3.22799 2.35355,-2.16742 25.926207,7.85164 33.653637,14.30373 104.514584,44.13689 141.272544,59.47713 17.65618,7.36847 37.84647,16.02844 44.86731,19.2444 7.02085,3.21596 13.49805,5.84719 14.39377,5.84719 0.89571,0 13.51317,5.03769 28.03879,11.19487 14.5256,6.15715 26.86668,10.73837 27.42459,10.18043 0.55794,-0.55792 1.35374,-4.01558 1.76847,-7.68368 0.41472,-3.66811 2.14896,-15.24657 3.85389,-25.72993 6.3844,-39.25719 29.33078,-196.1444 35.21455,-240.7662 2.25535,-17.10444 5.13147,-38.773394 6.39135,-48.153243 1.25987,-9.379851 2.35373,-21.56864 2.43077,-27.086198 0.0771,-5.517559 0.8026,-10.527602 1.61238,-11.133451 1.52537,-1.141232 3.20524,-13.759828 3.45921,-25.9846718 0.0964,-4.6413504 0.72138,-6.1144783 1.8432,-4.3447665 1.27474,2.0109996 2.06222,1.51149 3.16318,-2.0063851 1.3708,-4.380099 1.58755,-4.2284162 3.34124,2.3383816 1.03145,3.8622911 2.39225,9.7309678 3.02402,13.0415028 0.63177,3.310534 1.86426,7.373465 2.73884,9.028732 0.87461,1.655268 2.16445,7.295597 2.86636,12.534068 1.43023,10.674289 10.60126,47.086064 12.71383,50.477837 0.75214,1.207583 1.46937,5.355665 1.59382,9.217956 0.24856,7.713468 7.38772,41.523828 16.85743,79.835098 3.35241,13.56273 7.53492,31.16876 9.29446,39.12452 8.99403,40.66656 20.53409,90.00466 22.62411,96.72677 1.0293,3.31054 5.30262,20.23941 9.49629,37.61972 4.19365,17.38031 8.30846,31.60056 9.14402,31.60056 0.83558,0 18.03798,-3.69842 38.22759,-8.21874 20.18959,-4.5203 42.57704,-9.49943 49.74986,-11.06471 7.17282,-1.56528 20.26449,-4.71502 29.09258,-6.99941 19.81861,-5.12834 44.48196,-10.91688 68.21709,-16.01071 9.93161,-2.13144 19.41178,-4.38595 21.06704,-5.01004 4.74909,-1.79058 20.06386,-4.43791 20.06386,-3.46826 0,2.49583 -5.12294,9.97678 -8.44689,12.33484 -2.0885,1.4816 -10.74824,10.60692 -19.24384,20.27846 -8.49562,9.67157 -28.41496,31.93403 -44.26524,49.47219 -15.85029,17.53813 -31.67024,35.04757 -35.15551,38.90986 -3.48524,3.86228 -15.79728,17.74917 -27.36007,30.85976 -11.56282,13.11057 -24.83494,28.00797 -29.4936,33.10536 -4.65869,5.09735 -8.4959,10.69459 -8.52714,12.43826 -0.0595,3.3119 14.51745,22.99079 80.13563,108.18404 61.42813,79.75324 66.57779,86.6392 65.55681,87.6602 -0.52658,0.52656 -6.22367,-0.87866 -12.66019,-3.12273 -6.43653,-2.24407 -34.27462,-11.27316 -61.8624,-20.06466 -27.5878,-8.79148 -64.87965,-20.67642 -82.87081,-26.41095 -17.99113,-5.73455 -33.20216,-9.93544 -33.80226,-9.33532 -0.60012,0.6001 2.61899,2.20268 7.15357,3.56128 4.53459,1.35859 8.99949,3.45264 9.92197,4.65343 0.92253,1.20079 6.27738,15.27491 11.89972,31.27584 5.62236,16.00092 14.38654,40.37849 19.47602,54.17239 12.78168,34.64199 20.94092,58.18517 20.16495,58.18517 -0.59644,0 -67.54002,-104.0405 -82.90379,-128.84508 -5.052,-8.15634 -6.43902,-12.44807 -6.01915,-18.62423 0.57668,-8.48255 0.94237,-8.66403 12.5839,-6.24428 l 6.01916,1.2511 -6.01916,-2.93047 c -3.31054,-1.61177 -8.05062,-2.97119 -10.53352,-3.02097 -3.74456,-0.0751 -4.53978,1.02145 -4.66346,6.43027 -0.0821,3.5864 -0.45874,8.32649 -0.8372,10.53352 -1.98591,11.58109 -9.50103,68.57946 -13.09466,99.31605 -2.25781,19.31145 -5.845,47.30053 -7.9715,62.19793 -2.12651,14.89741 -4.86658,36.11494 -6.08907,47.15006 -1.22248,11.03511 -3.47717,28.64114 -5.01046,39.1245 -1.53326,10.48336 -5.53078,41.63248 -8.88337,69.22028 -3.35259,27.58779 -6.86804,52.86829 -7.81207,56.17879 -1.62451,5.6968 -1.84357,5.3744 -4.08998,-6.0192 z M 302.7183,791.83012 c 0,-9.10483 17.6696,-133.66621 19.17464,-135.17128 1.87282,-1.87282 2.84268,1.77062 7.99452,30.03238 l 5.30928,29.12552 -9.04321,22.97845 c -4.97375,12.63816 -11.89559,30.42717 -15.38186,39.53113 -6.28631,16.41595 -8.05337,19.37895 -8.05337,13.5038 z M 540.97652,549.98741 c -7.4487,-9.89469 -13.50841,-18.65726 -13.46602,-19.47238 0.0423,-0.81511 4.00782,-5.94291 8.81203,-11.3951 l 8.73493,-9.91304 17.77259,5.31521 c 9.77493,2.92337 33.57286,9.95125 52.8843,15.61747 19.31147,5.66624 38.59964,11.43959 42.86265,12.82964 l 7.75089,2.52738 -8.75408,2.18805 c -10.9893,2.74674 -99.43028,20.50468 -101.51475,20.38302 -0.8467,-0.0493 -7.63383,-8.18554 -15.08254,-18.08025 z m -337.57427,-5.13345 c -57.38617,-5.28491 -56.57582,-4.8645 -19.06066,-9.88889 18.20794,-2.43858 42.08105,-5.8773 53.05134,-7.64158 10.9703,-1.76427 20.19084,-2.96294 20.49006,-2.66369 1.65217,1.65215 -17.94173,23.39888 -20.90314,23.19983 -1.915,-0.12862 -17.02493,-1.48128 -33.5776,-3.00567 z m 87.23587,-162.55794 -21.1089,-8.95788 -19.68677,-33.17337 c -10.82772,-18.24534 -19.2575,-33.60261 -18.73285,-34.12728 0.52466,-0.52465 20.0113,16.30463 43.30366,37.39841 33.11551,29.9897 42.34974,39.42155 42.34974,43.25602 0,2.69704 -1.12859,4.82681 -2.50799,4.73286 -1.37939,-0.094 -12.00699,-4.20192 -23.61689,-9.12876 z m 180.95224,-4.2435 c -0.99651,-1.93114 -2.9066,-8.17847 -4.24466,-13.88293 l -2.43285,-10.3718 18.6203,-32.19678 c 10.24115,-17.70823 18.94503,-31.87206 19.34191,-31.47516 1.44899,1.44898 -22.08068,88.47267 -24.30799,89.90234 -3.52641,2.26354 -5.00527,1.84477 -6.97671,-1.97567 z"
       id="path3222"
       inkscape:connector-curvature="0" />
  </g>
</svg>
